<svg width="105" height="73" viewBox="0 0 105 73" fill="none" xmlns="http://www.w3.org/2000/svg">
<path d="M0.000732422 72.1828L24.3139 72.1828L13.1366 55.8604L0.000732422 72.1828Z" fill="white"/>
<path d="M65.3601 72.1828L52.2272 55.8604L41.0585 72.1828L65.3601 72.1828Z" fill="white"/>
<path d="M29.3495 41.5757L-2.79063e-06 0.50798L-1.85866e-06 24.4447L32.6873 72.1828L29.3495 41.5757Z" fill="white"/>
<path d="M34.0557 71.6748L66.7303 23.9368L66.7303 4.60802e-05L37.3753 41.0677L34.0557 71.6748Z" fill="white"/>
<path d="M104.004 71.6748L90.8709 55.3524L79.7021 71.6748L104.004 71.6748Z" fill="white"/>
<path d="M67.9934 41.0676L38.6439 -6.10352e-05L38.6439 23.9367L71.3312 71.6747L67.9934 41.0676Z" fill="white"/>
<path d="M71.3312 71.6748L104.006 23.9367L104.006 -2.83064e-05L74.6508 41.0676L71.3312 71.6748Z" fill="white"/>
</svg>
