<svg width="143" height="125" viewBox="0 0 143 125" fill="none" xmlns="http://www.w3.org/2000/svg">
<path d="M78.3631 -53.072C84.8402 -76.5676 118.16 -76.5676 124.637 -53.072L130.684 -31.1357C133.661 -20.3361 143.714 -13.0326 154.905 -13.5384L177.636 -14.5658C201.983 -15.6662 212.28 16.0226 191.936 29.4433L172.942 41.9734C163.591 48.1421 159.751 59.9593 163.69 70.4463L171.692 91.7477C180.262 114.563 153.306 134.148 134.255 118.947L116.469 104.754C107.713 97.7674 95.2873 97.7673 86.5309 104.754L68.7446 118.947C49.6941 134.148 22.7381 114.563 31.3083 91.7477L39.3098 70.4463C43.249 59.9593 39.4093 48.1421 30.0584 41.9734L11.0644 29.4433C-9.27972 16.0226 1.01654 -15.6662 25.3637 -14.5658L48.0952 -13.5384C59.2862 -13.0326 69.3386 -20.3361 72.3157 -31.1357L78.3631 -53.072Z" fill="#0C1823"/>
</svg>
